<svg id="Layer_1" data-name="Layer 1" xmlns="http://www.w3.org/2000/svg" viewBox="0 0 185.75 300" xmlns:m="https://www.mapbox.com"><path d="M185.75,152.14c0-.07,0-.14,0-.21.02-1.25-.01-1.93-.01-1.93h-.05c-1.33-42.79-42.36-77.14-92.8-77.14-5.29,0-10.47.4-15.52,1.12C106.03,17.5,160.65,0,160.65,0-5,25.71.02,150,.02,150h.06c-.02.71-.06,1.42-.06,2.14C.02,195.93,41.59,231.43,92.88,231.43c4.44,0,8.79-.28,13.06-.8-29.21,52.83-80.85,69.37-80.85,69.37,135.91-21.1,156.93-108.53,160.1-139.26.36-2.83.55-5.69.55-8.6Z" fill="#eb2029"/><path d="M118.7,126.27c-1.21-.81-2.52-1.56-3.88-2.23-16.16-7.97-36.82-3.24-46.15,10.56-5.86,8.66-5.84,18.84-1.02,27.19.66,1.3,1.46,2.56,2.38,3.76-6.81-4.51-11.55-11.19-12.79-18.83-.22,1.3-.32,2.64-.32,3.99,0,15.93,15.13,28.84,33.79,28.84,11.73,0,22.05-5.11,28.1-12.86.65-.75,1.25-1.53,1.81-2.36.28-.42.55-.84.8-1.26-1.17,7.29-5.57,14.14-12.71,18.87,1.43-.49,2.84-1.08,4.2-1.76,16.16-7.97,21.69-25.61,12.36-39.4-5.84-8.64-16.14-13.71-26.98-14.34-1.7-.17-3.4-.21-5.1-.12,7.98-2.78,17.13-2.95,25.5-.04Z" fill="#fff"/><m:metadata><m:parameters><m:parameter m:name="color-1" m:type="color" m:value="#EB2029"/><m:parameter m:name="color-2" m:type="color" m:value="#FFFFFF"/></m:parameters></m:metadata></svg>